<mxfile host="app.diagrams.net" modified="2023-11-01T16:28:29.283Z" agent="Mozilla/5.0 (X11; Linux x86_64) AppleWebKit/537.36 (KHTML, like Gecko) Chrome/118.0.0.0 Safari/537.36" version="22.0.8" etag="P6wDsOkcj-YeIpp_b-9Z" type="github">
  <diagram name="PÃ¡gina-1" id="mgDromJ8nboZ5oqQf2bE">
    <mxGraphModel>
      <root>
        <mxCell id="0" />
        <mxCell id="1" parent="0" />
      </root>
    </mxGraphModel>
  </diagram>
</mxfile>
